<svg width="15" height="18" viewBox="0 0 15 18" fill="none" xmlns="http://www.w3.org/2000/svg">
<path d="M7.43609 9.50201C7.45435 9.50201 7.47261 9.50201 7.49452 9.50201C7.50182 9.50201 7.50912 9.50201 7.51643 9.50201C7.52738 9.50201 7.54199 9.50201 7.55295 9.50201C8.62293 9.48375 9.48841 9.10761 10.1275 8.38821C11.5334 6.80332 11.2997 4.08638 11.2741 3.8271C11.1828 1.88068 10.2626 0.949471 9.50301 0.514905C8.93698 0.189894 8.276 0.0146072 7.53834 0H7.51278C7.50912 0 7.50182 0 7.49817 0H7.47626C7.07091 0 6.27481 0.0657326 5.51158 0.500298C4.7447 0.934863 3.80984 1.86608 3.71854 3.8271C3.69298 4.08638 3.45927 6.80332 4.86521 8.38821C5.50063 9.10761 6.36611 9.48375 7.43609 9.50201ZM4.69358 3.91839C4.69358 3.90744 4.69723 3.89648 4.69723 3.88918C4.81774 1.27083 6.67651 0.989641 7.47261 0.989641H7.48721C7.49452 0.989641 7.50547 0.989641 7.51643 0.989641C8.50242 1.01155 10.1786 1.41325 10.2918 3.88918C10.2918 3.90013 10.2918 3.91109 10.2955 3.91839C10.2991 3.94395 10.5547 6.42719 9.39346 7.73453C8.93333 8.25309 8.31983 8.50872 7.51278 8.51602C7.50547 8.51602 7.50182 8.51602 7.49452 8.51602C7.48721 8.51602 7.48356 8.51602 7.47626 8.51602C6.67286 8.50872 6.0557 8.25309 5.59923 7.73453C4.4416 6.43449 4.68993 3.9403 4.69358 3.91839Z" fill="#949494"/>
<path d="M14.999 12.913C14.999 12.9082 14.999 12.9034 14.999 12.8987C14.999 12.8606 14.9953 12.8226 14.9953 12.7798C14.9734 11.8384 14.9259 9.63685 13.3411 8.93313C13.3301 8.92838 13.3155 8.92362 13.3045 8.91887C11.6576 8.37206 10.2881 7.13579 10.2735 7.12153C10.0508 6.91707 9.74402 6.98839 9.587 7.27844C9.42997 7.56849 9.48474 7.96789 9.7075 8.17235C9.76959 8.22941 11.223 9.54651 13.0416 10.1551C13.8925 10.5498 13.9874 11.7337 14.013 12.8179C14.013 12.8606 14.013 12.8987 14.0166 12.9367C14.0203 13.3647 13.9984 14.0256 13.94 14.406C13.3484 14.8434 11.0295 16.3555 7.50181 16.3555C3.98877 16.3555 1.65526 14.8387 1.06002 14.4012C1.00159 14.0208 0.976027 13.3599 0.983331 12.932C0.983331 12.8939 0.986983 12.8559 0.986983 12.8131C1.01255 11.729 1.10749 10.545 1.95836 10.1504C3.77697 9.54175 5.23039 8.2199 5.29247 8.1676C5.51523 7.96314 5.57 7.56373 5.41298 7.27368C5.25595 6.98364 4.9492 6.91232 4.72644 7.11677C4.71183 7.13104 3.3497 8.3673 1.69543 8.91411C1.68083 8.91887 1.66987 8.92362 1.65892 8.92838C0.0740301 9.63685 0.0265566 11.8384 0.00464579 12.7751C0.00464579 12.8179 0.0046457 12.8559 0.000993893 12.8939C0.000993893 12.8987 0.000993893 12.9034 0.000993893 12.9082C-0.00265792 13.1554 -0.00630965 14.425 0.187236 15.0621C0.223754 15.1858 0.289487 15.2904 0.37713 15.3617C0.486685 15.4568 3.11234 17.6345 7.50546 17.6345C11.8986 17.6345 14.5242 15.452 14.6338 15.3617C14.7178 15.2904 14.7872 15.1858 14.8237 15.0621C15.0063 14.4298 15.0026 13.1602 14.999 12.913Z" fill="#949494"/>
</svg>
